<svg width="145" height="145" viewBox="0 0 145 145" fill="none" xmlns="http://www.w3.org/2000/svg">
<circle cx="72.5" cy="72.5" r="72.5" fill="#FF0000"/>
<path d="M72.5 15C104.256 15 130 40.7436 130 72.5C130 104.256 104.256 130 72.5 130C40.7436 130 15 104.256 15 72.5C15 40.7436 40.7436 15 72.5 15ZM73 23C45.3858 23 23 45.3858 23 73C23 100.614 45.3858 123 73 123C100.614 123 123 100.614 123 73C123 45.3858 100.614 23 73 23Z" fill="white"/>
<path d="M73 28C82.7905 28 90.7275 34.7157 90.7275 43C90.7275 48.8327 86.7925 53.887 81.0469 56.3682C91.4674 60.0173 99 70.5608 99 83V111H47V83C47 70.5611 54.532 60.0176 64.9521 56.3682C59.2069 53.8869 55.2725 48.8324 55.2725 43C55.2725 34.7157 63.2095 28 73 28Z" fill="white"/>
</svg>
