<svg width="154" height="131" viewBox="0 0 154 131" fill="none" xmlns="http://www.w3.org/2000/svg">
<path d="M115.5 0C136.763 0 154 17.4609 154 39C154 42.7375 153.48 46.3517 152.511 49.7734L123.378 78.5908L69.5 130.5L27.707 80.6582L1.1748 48.5957C0.408001 45.5259 0 42.3113 0 39C0 17.4609 17.237 0 38.5 0C59.763 0 77 17.4609 77 39C77 17.4609 94.237 0 115.5 0Z" fill="#FF0000"/>
<path d="M38.21 86.46C37.1333 86.46 36.595 85.61 36.595 83.91V82.805C36.595 82.465 36.6517 82.125 36.765 81.785C36.8783 81.5017 37.1333 81.19 37.53 80.85C38.21 80.2267 38.89 79.6033 39.57 78.98C40.25 78.3567 40.9017 77.705 41.525 77.025C41.6383 76.9117 41.7517 76.855 41.865 76.855C41.9783 76.7983 42.0633 76.7417 42.12 76.685C42.2333 76.5717 42.4033 76.3167 42.63 75.92C42.8567 75.5233 43.1117 75.2117 43.395 74.985C43.6783 74.7583 43.9333 74.5883 44.16 74.475C44.3867 74.305 44.5283 74.0217 44.585 73.625C45.2083 72.8883 45.8317 72.1517 46.455 71.415C47.0783 70.6217 47.6733 69.8283 48.24 69.035C48.6933 68.8083 49.1467 68.2133 49.6 67.25C50.0533 66.2867 50.4783 65.5783 50.875 65.125C51.1583 65.125 51.3283 64.955 51.385 64.615C51.4417 64.275 51.5267 63.9917 51.64 63.765C52.4333 62.405 53.17 61.0733 53.85 59.77C54.53 58.4667 55.0683 57.0783 55.465 55.605C55.5783 55.3217 55.6917 55.095 55.805 54.925C55.975 54.6983 56.0883 54.4717 56.145 54.245V53.905C56.145 53.6783 56.0883 53.4517 55.975 53.225C55.9183 52.9417 55.9183 52.6583 55.975 52.375C56.0317 52.0917 56.0883 51.6667 56.145 51.1C56.2017 50.4767 56.2867 50.08 56.4 49.91C56.57 49.6267 56.7117 49.5417 56.825 49.655C56.995 49.7683 57.1083 49.74 57.165 49.57C57.2217 49.4567 57.25 49.2867 57.25 49.06C57.3067 48.7767 57.335 48.5783 57.335 48.465C57.335 48.4083 57.3067 48.38 57.25 48.38C57.1933 48.38 57.0233 48.4933 56.74 48.72C56.5133 48.89 56.4 48.9183 56.4 48.805L56.315 47.955C56.0883 47.615 55.9183 47.3883 55.805 47.275C55.7483 47.105 55.7483 46.8217 55.805 46.425V46.17C55.805 45.7167 55.4933 45.5467 54.87 45.66C54.02 45.15 53.2833 44.895 52.66 44.895C52.0933 44.895 51.555 45.0083 51.045 45.235C50.535 45.405 50.025 45.49 49.515 45.49C49.0617 45.49 48.835 45.2917 48.835 44.895C48.835 44.555 49.0617 44.2717 49.515 44.045C50.025 43.7617 50.5633 43.5633 51.13 43.45C51.6967 43.3367 52.1217 43.28 52.405 43.28C53.1417 43.28 53.9067 43.3933 54.7 43.62C55.4933 43.8467 56.1733 44.1867 56.74 44.64C57.7033 45.3767 58.355 46.3117 58.695 47.445C59.0917 48.5217 59.29 49.6267 59.29 50.76C59.29 51.78 59.205 52.8 59.035 53.82C58.865 54.7833 58.6383 55.7183 58.355 56.625C58.2417 57.0783 58.0717 57.5317 57.845 57.985C57.6183 58.4383 57.42 58.8917 57.25 59.345C57.1933 59.515 57.1367 59.7417 57.08 60.025C57.0233 60.3083 56.995 60.5917 56.995 60.875C56.995 61.3283 57.1083 61.555 57.335 61.555C57.505 61.555 57.7883 61.3567 58.185 60.96C60.1117 59.0333 62.01 57.1067 63.88 55.18C65.8067 53.2533 67.79 51.4117 69.83 49.655C70.2833 49.2583 70.7367 48.89 71.19 48.55C71.6433 48.21 72.0683 47.8417 72.465 47.445C72.5783 47.275 72.7483 47.105 72.975 46.935C73.2017 46.765 73.3717 46.6517 73.485 46.595C74.165 46.1417 74.7883 45.6883 75.355 45.235C75.9217 44.725 76.5167 44.2717 77.14 43.875C77.99 43.365 78.84 42.8833 79.69 42.43C80.5967 41.92 81.5033 41.495 82.41 41.155H82.495C82.665 41.0983 82.7783 41.0983 82.835 41.155C82.9483 41.2117 83.0617 41.24 83.175 41.24C83.345 41.1267 83.4583 41.0133 83.515 40.9C83.6283 40.7867 83.7983 40.7017 84.025 40.645C84.8183 40.475 85.6117 40.39 86.405 40.39C87.5383 40.39 88.615 40.56 89.635 40.9C90.655 41.24 91.505 41.8067 92.185 42.6C92.2983 42.8833 92.3833 43.1383 92.44 43.365C92.4967 43.535 92.695 43.6767 93.035 43.79C93.4317 44.5267 93.6867 45.2917 93.8 46.085C93.97 46.8217 94.055 47.5867 94.055 48.38C94.055 49.4567 93.97 50.505 93.8 51.525C93.7433 51.9783 93.6017 52.46 93.375 52.97C93.205 53.4233 93.1483 53.905 93.205 54.415L93.12 54.585C92.78 55.0383 92.6667 55.4917 92.78 55.945L92.61 56.54C92.27 56.71 92.1 56.965 92.1 57.305C92.1 57.5883 92.1 57.9 92.1 58.24H92.015C91.2783 60.5067 90.4 62.7167 89.38 64.87C88.36 66.9667 87.2833 69.035 86.15 71.075C86.15 71.1317 86.0367 71.3867 85.81 71.84C85.5833 72.2933 85.385 72.7467 85.215 73.2C85.1017 73.6533 85.1583 73.88 85.385 73.88C85.725 73.88 86.065 73.71 86.405 73.37C86.745 72.9733 87.0283 72.6617 87.255 72.435C87.7083 71.9817 88.0767 71.5 88.36 70.99C88.7 70.4233 89.0683 69.9417 89.465 69.545C89.5783 69.375 89.72 69.2333 89.89 69.12C90.06 68.95 90.23 68.8083 90.4 68.695C90.6833 68.4683 90.91 68.185 91.08 67.845C91.25 67.505 91.4483 67.2217 91.675 66.995L93.545 64.87C93.9983 64.87 94.2817 64.7 94.395 64.36C94.5083 64.02 94.6783 63.7083 94.905 63.425C95.1317 63.085 95.6417 62.49 96.435 61.64C97.2283 60.79 97.8233 60.2233 98.22 59.94C98.8433 59.3733 99.5517 59.09 100.345 59.09C101.535 59.09 102.527 59.7983 103.32 61.215C103.433 61.4417 103.632 61.98 103.915 62.83C104.255 63.68 104.425 64.19 104.425 64.36C104.425 64.53 104.368 64.7283 104.255 64.955C104.198 65.125 104.198 65.2667 104.255 65.38C104.368 65.4933 104.453 65.5217 104.51 65.465C104.623 65.4083 104.708 65.5217 104.765 65.805C104.935 66.145 105.048 66.57 105.105 67.08C105.218 67.59 105.303 68.0433 105.36 68.44C105.417 68.7233 105.417 69.035 105.36 69.375C105.36 69.6583 105.388 69.9417 105.445 70.225C105.558 70.395 105.643 70.5367 105.7 70.65C105.757 70.7633 105.813 70.9333 105.87 71.16C106.097 72.0667 106.352 72.9733 106.635 73.88C106.918 74.73 107.23 75.58 107.57 76.43L107.655 76.515C107.655 77.195 107.91 77.5917 108.42 77.705C109.44 79.065 110.743 79.745 112.33 79.745C112.557 79.745 112.755 79.7167 112.925 79.66C113.152 79.6033 113.378 79.5467 113.605 79.49C113.945 79.49 114.228 79.575 114.455 79.745C114.738 79.915 114.653 80.1417 114.2 80.425C113.35 80.9917 112.472 81.275 111.565 81.275C109.922 81.275 108.533 80.85 107.4 80C106.323 79.0933 105.417 77.9883 104.68 76.685C104 75.3817 103.405 74.05 102.895 72.69L103.15 72.435C103.603 72.265 103.83 72.1233 103.83 72.01C103.83 71.8967 103.688 71.8117 103.405 71.755C103.178 71.6417 102.923 71.6133 102.64 71.67C102.073 70.7067 101.648 69.6867 101.365 68.61C101.138 67.4767 100.77 66.4 100.26 65.38C99.58 63.9633 98.815 63.255 97.965 63.255C97.3983 63.255 96.86 63.5383 96.35 64.105C95.84 64.615 95.2733 65.1817 94.65 65.805L92.27 68.44C91.7033 68.61 91.3917 69.0067 91.335 69.63C90.315 70.7633 89.2383 71.9533 88.105 73.2C87.0283 74.39 85.8383 75.4383 84.535 76.345C83.685 76.9117 82.7217 77.195 81.645 77.195C81.135 77.195 80.6817 77.0817 80.285 76.855C79.8883 76.6283 79.69 76.2317 79.69 75.665C79.69 75.495 79.7467 75.1833 79.86 74.73C80.0867 73.9933 80.3983 73.3417 80.795 72.775C81.2483 72.2083 81.6733 71.6417 82.07 71.075C82.5233 70.395 82.9767 69.545 83.43 68.525C83.94 67.4483 84.3933 66.655 84.79 66.145C84.96 65.8617 85.13 65.6067 85.3 65.38C85.5267 65.1533 85.64 64.87 85.64 64.53L86.32 62.915C86.7733 62.745 87 62.5183 87 62.235C87 61.9517 87.0283 61.64 87.085 61.3C87.1417 60.96 87.255 60.6483 87.425 60.365C87.6517 60.025 87.7933 59.685 87.85 59.345C88.0767 58.495 88.3883 57.7017 88.785 56.965C89.1817 56.1717 89.4083 55.3217 89.465 54.415V54.33C89.805 53.0267 90.0883 51.7233 90.315 50.42C90.5417 49.06 90.655 47.7283 90.655 46.425C90.655 45.235 90.4283 44.2717 89.975 43.535C89.5783 42.7983 88.7 42.43 87.34 42.43C86.9433 42.43 86.49 42.3733 85.98 42.26C85.47 42.1467 84.9883 42.1467 84.535 42.26C84.4217 42.2033 84.28 42.175 84.11 42.175C83.8833 42.175 83.6 42.345 83.26 42.685L82.92 42.77L82.58 42.685C82.3533 42.685 82.1267 42.7983 81.9 43.025C81.73 43.2517 81.5317 43.45 81.305 43.62H81.22C79.2933 44.5267 77.48 45.6317 75.78 46.935C74.08 48.1817 72.4083 49.4567 70.765 50.76C70.7083 50.8167 70.595 50.9017 70.425 51.015C70.255 51.0717 70.1417 51.1567 70.085 51.27C67.9317 53.0267 65.835 54.8967 63.795 56.88C61.8117 58.8633 59.8567 60.8467 57.93 62.83C57.4767 62.83 57.1933 63.085 57.08 63.595C56.7967 63.7083 56.6267 63.8783 56.57 64.105C56.57 64.3317 56.5133 64.5867 56.4 64.87C56.06 65.2667 55.6633 65.6633 55.21 66.06C54.7567 66.4567 54.3883 66.8817 54.105 67.335C53.8783 67.7317 53.4533 68.27 52.83 68.95C52.2633 69.63 51.81 70.14 51.47 70.48C51.2433 70.7067 50.96 70.905 50.62 71.075C50.3367 71.245 50.195 71.5567 50.195 72.01C49.9683 72.35 49.7133 72.7183 49.43 73.115C49.1467 73.455 48.8633 73.7667 48.58 74.05C48.0133 74.6733 47.5317 75.3817 47.135 76.175C46.795 76.9117 46.3133 77.5633 45.69 78.13C45.5767 78.3 45.35 78.4983 45.01 78.725C44.7267 78.9517 44.5283 79.1217 44.415 79.235C44.3583 79.3483 44.33 79.4617 44.33 79.575C44.3867 79.6317 44.3583 79.7733 44.245 80C43.8483 80.7367 43.395 81.4733 42.885 82.21C42.4317 83.0033 41.95 83.74 41.44 84.42C41.0433 84.9867 40.5333 85.4683 39.91 85.865C39.2867 86.2617 38.72 86.46 38.21 86.46Z" fill="white"/>
</svg>
